<?xml version="1.0" encoding="UTF-8"?>
<svg width="821px" height="503px" viewBox="0 0 821 503" version="1.1" xmlns="http://www.w3.org/2000/svg" xmlns:xlink="http://www.w3.org/1999/xlink">
    <title>Happicard logo. White</title>
    <g id="Happicard-logo.-White" stroke="none" stroke-width="1" fill="none" fill-rule="evenodd">
        <g id="Group" transform="translate(149.538680, 184.000000)">
            <path d="M241.932547,21.583 C247.243547,21.583 247.243547,21.583 252.215547,23.617 C257.187547,25.651 257.187547,25.651 261.086047,29.606 C264.984547,33.561 264.984547,33.561 267.357547,39.324 C269.730547,45.087 269.730547,45.087 269.730547,52.545 L269.730547,52.545 L269.730547,52.771 L269.725761,53.4454979 C269.625252,60.4909545 269.625252,60.4909545 267.414047,65.992 C265.097547,71.755 265.097547,71.755 261.199047,75.71 C257.300547,79.665 257.300547,79.665 252.272047,81.699 C247.243547,83.733 247.243547,83.733 241.932547,83.733 C234.587547,83.733 234.587547,83.733 229.728547,80.569 C224.869547,77.405 224.869547,77.405 221.705547,73.224 L221.705547,73.224 L221.705547,100.57 L221.531,100.57 L221.638965,100.646484 L208,110.56543 L208,91 L208.032,91.023 L208.032547,22.826 L221.705547,22.826 L221.705547,32.77 L222.074541,32.247375 C225.252491,27.8450833 225.252491,27.8450833 229.841547,24.8035 C234.700547,21.583 234.700547,21.583 241.932547,21.583 Z M172.324698,21.583 C177.635698,21.583 177.635698,21.583 182.607698,23.617 C187.579698,25.651 187.579698,25.651 191.478198,29.606 C195.376698,33.561 195.376698,33.561 197.749698,39.324 C200.122698,45.087 200.122698,45.087 200.122698,52.545 L200.122698,52.545 L200.122698,52.771 L200.117912,53.4454979 C200.017403,60.4909545 200.017403,60.4909545 197.806198,65.992 C195.489698,71.755 195.489698,71.755 191.591198,75.71 C187.692698,79.665 187.692698,79.665 182.664198,81.699 C177.635698,83.733 177.635698,83.733 172.324698,83.733 C164.979698,83.733 164.979698,83.733 160.120698,80.569 C155.261698,77.405 155.261698,77.405 152.097698,73.224 L152.097698,73.224 L152.097,100.488 L152.100285,100.49 L152.097,100.492 L152.097698,100.57 L151.99,100.57 L138.46132,110.408945 L138.461,100.57 L138.424698,100.57 L138.424698,22.826 L152.097698,22.826 L152.097698,32.77 L152.466692,32.247375 C155.644642,27.8450833 155.644642,27.8450833 160.233698,24.8035 C165.092698,21.583 165.092698,21.583 172.324698,21.583 Z M331.541245,21.583 C340.016245,21.583 340.016245,21.583 345.609745,24.408 C351.203245,27.233 351.203245,27.233 355.384245,31.866 L355.384245,31.866 L346.909245,41.019 L346.420136,40.5218669 C343.471437,37.5811923 343.471437,37.5811923 340.185745,35.6515 C336.626245,33.561 336.626245,33.561 331.428245,33.561 C327.699245,33.561 327.699245,33.561 324.535245,35.0865 C321.371245,36.612 321.371245,36.612 319.111245,39.1545 C316.851245,41.697 316.851245,41.697 315.551745,45.2 C314.252245,48.703 314.252245,48.703 314.252245,52.545 L314.252245,52.545 L314.252245,52.771 L314.258875,53.3336939 C314.345066,56.9762143 314.345066,56.9762143 315.551745,60.229 C316.851245,63.732 316.851245,63.732 319.224245,66.331 C321.597245,68.93 321.597245,68.93 324.874245,70.4555 C328.151245,71.981 328.151245,71.981 332.106245,71.981 C336.965245,71.981 336.965245,71.981 340.637745,69.8905 C344.310245,67.8 344.310245,67.8 347.587245,64.523 L347.587245,64.523 L355.836245,72.659 L355.342742,73.2056898 C351.115356,77.8036389 351.115356,77.8036389 345.779245,80.7385 C340.129245,83.846 340.129245,83.846 331.428245,83.846 C324.761245,83.846 324.761245,83.846 319.111245,81.4165 C313.461245,78.987 313.461245,78.987 309.336745,74.806 C305.212245,70.625 305.212245,70.625 302.895745,64.975 C300.579245,59.325 300.579245,59.325 300.579245,52.997 L300.579245,52.997 L300.579245,52.771 L300.585662,52.1066163 C300.701166,46.1426579 300.701166,46.1426579 302.895745,40.7365 C305.212245,35.03 305.212245,35.03 309.336745,30.7925 C313.461245,26.555 313.461245,26.555 319.167745,24.069 C324.874245,21.583 324.874245,21.583 331.541245,21.583 Z M521.719792,0 L521.719792,82.49 L508.046792,82.49 L508.046792,72.546 L507.677624,73.0565926 C504.496709,77.3610556 504.496709,77.3610556 499.854292,80.456 C494.938792,83.733 494.938792,83.733 487.706792,83.733 C482.395792,83.733 482.395792,83.733 477.423792,81.699 C472.451792,79.665 472.451792,79.665 468.609792,75.71 C464.767792,71.755 464.767792,71.755 462.394792,65.992 C460.021792,60.229 460.021792,60.229 460.021792,52.771 L460.021792,52.771 L460.021792,52.545 L460.026578,51.8705021 C460.127087,44.8250455 460.127087,44.8250455 462.338292,39.324 C464.654792,33.561 464.654792,33.561 468.496792,29.606 C472.338792,25.651 472.338792,25.651 477.367292,23.617 C482.395792,21.583 482.395792,21.583 487.706792,21.583 C495.051792,21.583 495.051792,21.583 499.910792,24.747 C504.769792,27.911 504.769792,27.911 508.046792,32.092 L508.046792,32.092 L508.046792,0 L521.719792,0 Z M102.038849,21.922 C115.372849,21.922 115.372849,21.922 121.813849,28.5325 C128.254849,35.143 128.254849,35.143 128.254849,47.121 L128.254849,47.121 L128.254849,82.49 L114.694849,82.49 L114.694849,75.145 L114.330043,75.5665017 C111.364673,78.9072353 111.364673,78.9072353 106.897849,81.247 C102.151849,83.733 102.151849,83.733 95.371849,83.733 C91.077849,83.733 91.077849,83.733 87.235849,82.5465 C83.393849,81.36 83.393849,81.36 80.512349,79.0435 C77.630849,76.727 77.630849,76.727 75.879349,73.2805 C74.127849,69.834 74.127849,69.834 74.127849,65.314 L74.127849,65.314 L74.127849,65.088 L74.1334292,64.5395664 C74.2282934,59.9119722 74.2282934,59.9119722 75.935849,56.4435 C77.743849,52.771 77.743849,52.771 80.964349,50.3415 C84.184849,47.912 84.184849,47.912 88.648349,46.7255 C93.111849,45.539 93.111849,45.539 98.309849,45.539 C103.733849,45.539 103.733849,45.539 107.519349,46.217 C111.304849,46.895 111.304849,46.895 114.807849,48.025 L114.807849,48.025 L114.807849,46.895 L114.803643,46.4839311 C114.681666,40.5707667 114.681666,40.5707667 111.022349,37.403 C107.236849,34.126 107.236849,34.126 100.117849,34.126 C95.032849,34.126 95.032849,34.126 91.077849,35.143 C87.122849,36.16 87.122849,36.16 83.054849,37.855 L83.054849,37.855 L79.325849,26.894 L80.2317168,26.490562 C84.7703945,24.5107273 84.7703945,24.5107273 89.495849,23.278 C94.693849,21.922 94.693849,21.922 102.038849,21.922 Z M386.120094,21.922 C399.454094,21.922 399.454094,21.922 405.895094,28.5325 C412.336094,35.143 412.336094,35.143 412.336094,47.121 L412.336094,47.121 L412.336094,82.49 L398.776094,82.49 L398.776094,75.145 L398.411288,75.5665017 C395.445918,78.9072353 395.445918,78.9072353 390.979094,81.247 C386.233094,83.733 386.233094,83.733 379.453094,83.733 C375.159094,83.733 375.159094,83.733 371.317094,82.5465 C367.475094,81.36 367.475094,81.36 364.593594,79.0435 C361.712094,76.727 361.712094,76.727 359.960594,73.2805 C358.209094,69.834 358.209094,69.834 358.209094,65.314 L358.209094,65.314 L358.209094,65.088 L358.214674,64.5395664 C358.309538,59.9119722 358.309538,59.9119722 360.017094,56.4435 C361.825094,52.771 361.825094,52.771 365.045594,50.3415 C368.266094,47.912 368.266094,47.912 372.729594,46.7255 C377.193094,45.539 377.193094,45.539 382.391094,45.539 C387.815094,45.539 387.815094,45.539 391.600594,46.217 C395.386094,46.895 395.386094,46.895 398.889094,48.025 L398.889094,48.025 L398.889094,46.895 L398.884888,46.4839311 C398.762911,40.5707667 398.762911,40.5707667 395.103594,37.403 C391.318094,34.126 391.318094,34.126 384.199094,34.126 C379.114094,34.126 379.114094,34.126 375.159094,35.143 C371.204094,36.16 371.204094,36.16 367.136094,37.855 L367.136094,37.855 L363.407094,26.894 L364.312962,26.490562 C368.851639,24.5107273 368.851639,24.5107273 373.577094,23.278 C378.775094,21.922 378.775094,21.922 386.120094,21.922 Z M13.899,3.39 L13.899,36.273 L51.641,36.273 L51.641,3.39 L65.54,3.39 L65.54,82.49 L51.641,82.49 L51.641,49.155 L13.899,49.155 L13.899,82.49 L-1.59872116e-14,82.49 L-1.59872116e-14,3.39 L13.899,3.39 Z M444.201943,25.425 C449.399943,21.357 449.399943,21.357 457.309943,21.696 L457.309943,21.696 L457.309943,36.16 L456.518943,36.16 L455.957033,36.1657383 C451.765881,36.2518125 451.765881,36.2518125 448.269943,37.629 C444.540943,39.098 444.540943,39.098 441.828943,42.036 C439.116943,44.974 439.116943,44.974 437.647943,49.4375 C436.178943,53.901 436.178943,53.901 436.178943,59.777 L436.178943,59.777 L436.178943,82.49 L422.505943,82.49 L422.505943,22.826 L436.178943,22.826 L436.178943,36.273 L436.40874,35.7349392 C439.211863,29.33028 439.211863,29.33028 444.201943,25.425 Z M292.104396,22.826 L292.104396,82.49 L278.431396,82.49 L278.431396,22.826 L292.104396,22.826 Z M101.360849,55.144 C94.919849,55.144 94.919849,55.144 91.303849,57.63 C87.687849,60.116 87.687849,60.116 87.687849,64.41 L87.687849,64.41 L87.687849,64.636 L87.6924217,64.951284 C87.811312,69.0137037 87.811312,69.0137037 91.021349,71.19 C94.354849,73.45 94.354849,73.45 99.213849,73.45 C102.603849,73.45 102.603849,73.45 105.485349,72.546 C108.366849,71.642 108.366849,71.642 110.513849,70.0035 C112.660849,68.365 112.660849,68.365 113.847349,66.0485 C115.033849,63.732 115.033849,63.732 115.033849,60.907 L115.033849,60.907 L115.033849,57.517 L114.594012,57.3498542 C112.138224,56.4435 112.138224,56.4435 108.875349,55.822 C105.315849,55.144 105.315849,55.144 101.360849,55.144 Z M385.442094,55.144 C379.001094,55.144 379.001094,55.144 375.385094,57.63 C371.769094,60.116 371.769094,60.116 371.769094,64.41 L371.769094,64.41 L371.769094,64.636 L371.773667,64.951284 C371.892557,69.0137037 371.892557,69.0137037 375.102594,71.19 C378.436094,73.45 378.436094,73.45 383.295094,73.45 C386.685094,73.45 386.685094,73.45 389.566594,72.546 C392.448094,71.642 392.448094,71.642 394.595094,70.0035 C396.742094,68.365 396.742094,68.365 397.928594,66.0485 C399.115094,63.732 399.115094,63.732 399.115094,60.907 L399.115094,60.907 L399.115094,57.517 L398.675257,57.3498542 C396.219469,56.4435 396.219469,56.4435 392.956594,55.822 C389.397094,55.144 389.397094,55.144 385.442094,55.144 Z M490.983792,33.448 C487.480792,33.448 487.480792,33.448 484.373292,34.7475 C481.265792,36.047 481.265792,36.047 478.892792,38.533 C476.519792,41.019 476.519792,41.019 475.163792,44.5785 C473.807792,48.138 473.807792,48.138 473.807792,52.545 L473.807792,52.545 L473.807792,52.771 L473.813819,53.3402689 C473.898192,57.3023 473.898192,57.3023 475.163792,60.6245 C476.519792,64.184 476.519792,64.184 478.892792,66.67 C481.265792,69.156 481.265792,69.156 484.373292,70.512 C487.480792,71.868 487.480792,71.868 490.983792,71.868 C494.373792,71.868 494.373792,71.868 497.537792,70.512 C500.701792,69.156 500.701792,69.156 503.074792,66.6135 C505.447792,64.071 505.447792,64.071 506.860292,60.568 C508.272792,57.065 508.272792,57.065 508.272792,52.771 L508.272792,52.771 L508.272792,52.545 L508.266514,51.9757311 C508.178625,48.0137 508.178625,48.0137 506.860292,44.6915 C505.447792,41.132 505.447792,41.132 503.074792,38.646 C500.701792,36.16 500.701792,36.16 497.537792,34.804 C494.373792,33.448 494.373792,33.448 490.983792,33.448 Z M238.768547,33.448 C235.265547,33.448 235.265547,33.448 232.101547,34.804 C228.937547,36.16 228.937547,36.16 226.564547,38.7025 C224.191547,41.245 224.191547,41.245 222.779047,44.748 C221.366547,48.251 221.366547,48.251 221.366547,52.545 L221.366547,52.545 L221.366547,52.771 L221.372825,53.3402689 C221.460714,57.3023 221.460714,57.3023 222.779047,60.6245 C224.191547,64.184 224.191547,64.184 226.564547,66.67 C228.937547,69.156 228.937547,69.156 232.101547,70.512 C235.265547,71.868 235.265547,71.868 238.768547,71.868 C242.271547,71.868 242.271547,71.868 245.379047,70.512 C248.486547,69.156 248.486547,69.156 250.803047,66.7265 C253.119547,64.297 253.119547,64.297 254.475547,60.7375 C255.831547,57.178 255.831547,57.178 255.831547,52.771 L255.831547,52.771 L255.831547,52.545 L255.82552,51.9757311 C255.741147,48.0137 255.741147,48.0137 254.475547,44.6915 C253.119547,41.132 253.119547,41.132 250.803047,38.646 C248.486547,36.16 248.486547,36.16 245.379047,34.804 C242.271547,33.448 242.271547,33.448 238.768547,33.448 Z M169.160698,33.448 C165.657698,33.448 165.657698,33.448 162.493698,34.804 C159.329698,36.16 159.329698,36.16 156.956698,38.7025 C154.583698,41.245 154.583698,41.245 153.171198,44.748 C151.758698,48.251 151.758698,48.251 151.758698,52.545 L151.758698,52.545 L151.758698,52.771 L151.764976,53.3402689 C151.852865,57.3023 151.852865,57.3023 153.171198,60.6245 C154.583698,64.184 154.583698,64.184 156.956698,66.67 C159.329698,69.156 159.329698,69.156 162.493698,70.512 C165.657698,71.868 165.657698,71.868 169.160698,71.868 C172.663698,71.868 172.663698,71.868 175.771198,70.512 C178.878698,69.156 178.878698,69.156 181.195198,66.7265 C183.511698,64.297 183.511698,64.297 184.867698,60.7375 C186.223698,57.178 186.223698,57.178 186.223698,52.771 L186.223698,52.771 L186.223698,52.545 L186.217671,51.9757311 C186.133298,48.0137 186.133298,48.0137 184.867698,44.6915 C183.511698,41.132 183.511698,41.132 181.195198,38.646 C178.878698,36.16 178.878698,36.16 175.771198,34.804 C172.663698,33.448 172.663698,33.448 169.160698,33.448 Z M292.556396,0.678 L292.556396,13.673 L277.866396,13.673 L277.866396,0.678 L292.556396,0.678 Z" id="Combined-Shape" fill="#FFFFFF"></path>
            <path d="M164.46132,120.622813 C174.968647,129.200938 188.026136,133.49 203.633788,133.49 C219.24144,133.49 234.183951,126.823333 248.46132,113.49" id="Path-2" stroke="#FFFFFF" stroke-width="12" stroke-linejoin="round" transform="translate(206.461320, 123.490000) rotate(-2.000000) translate(-206.461320, -123.490000) "></path>
        </g>
    </g>
</svg>